<svg width="48" height="48" viewBox="0 0 48 48" fill="none" xmlns="http://www.w3.org/2000/svg">
<g filter="url(#filter0_d_30_40)">
<path d="M4 1.42857C4 1.04969 4.14048 0.686328 4.39053 0.418419C4.64058 0.15051 4.97972 0 5.33335 0H9.33338C9.6308 8.80328e-05 9.91965 0.106716 10.154 0.302928C10.3884 0.499139 10.5548 0.773668 10.6267 1.08286L11.7067 5.71429H42.667C42.8696 5.71435 43.0694 5.76384 43.2514 5.85901C43.4334 5.95418 43.5928 6.09252 43.7175 6.26354C43.8422 6.43456 43.9288 6.63376 43.9709 6.84602C44.013 7.05828 44.0094 7.27802 43.9604 7.48857L39.9603 24.6314C39.8884 24.9406 39.722 25.2151 39.4876 25.4114C39.2533 25.6076 38.9644 25.7142 38.667 25.7143H14.6668C14.3693 25.7142 14.0805 25.6076 13.8461 25.4114C13.6118 25.2151 13.4454 24.9406 13.3734 24.6314L8.29337 2.85714H5.33335C4.97972 2.85714 4.64058 2.70663 4.39053 2.43872C4.14048 2.17081 4 1.80745 4 1.42857ZM12.3734 8.57143L13.7068 14.2857H17.3335V8.57143H12.3734ZM20.0001 8.57143V14.2857H25.3335V8.57143H20.0001ZM28.0002 8.57143V14.2857H33.3336V8.57143H28.0002ZM36.0003 8.57143V14.2857H39.627L40.9603 8.57143H36.0003ZM38.9603 17.1429H36.0003V22.8571H37.627L38.9603 17.1429ZM33.3336 17.1429H28.0002V22.8571H33.3336V17.1429ZM25.3335 17.1429H20.0001V22.8571H25.3335V17.1429ZM17.3335 17.1429H14.3734L15.7068 22.8571H17.3335V17.1429ZM17.3335 31.4286C16.6262 31.4286 15.9479 31.7296 15.4478 32.2654C14.9477 32.8012 14.6668 33.528 14.6668 34.2857C14.6668 35.0435 14.9477 35.7702 15.4478 36.306C15.9479 36.8418 16.6262 37.1429 17.3335 37.1429C18.0407 37.1429 18.719 36.8418 19.2191 36.306C19.7192 35.7702 20.0001 35.0435 20.0001 34.2857C20.0001 33.528 19.7192 32.8012 19.2191 32.2654C18.719 31.7296 18.0407 31.4286 17.3335 31.4286ZM12.0001 34.2857C12.0001 32.7702 12.562 31.3167 13.5622 30.2451C14.5624 29.1735 15.919 28.5714 17.3335 28.5714C18.748 28.5714 20.1045 29.1735 21.1047 30.2451C22.1049 31.3167 22.6668 32.7702 22.6668 34.2857C22.6668 35.8012 22.1049 37.2547 21.1047 38.3263C20.1045 39.398 18.748 40 17.3335 40C15.919 40 14.5624 39.398 13.5622 38.3263C12.562 37.2547 12.0001 35.8012 12.0001 34.2857ZM36.0003 31.4286C35.293 31.4286 34.6148 31.7296 34.1147 32.2654C33.6146 32.8012 33.3336 33.528 33.3336 34.2857C33.3336 35.0435 33.6146 35.7702 34.1147 36.306C34.6148 36.8418 35.293 37.1429 36.0003 37.1429C36.7075 37.1429 37.3858 36.8418 37.8859 36.306C38.386 35.7702 38.667 35.0435 38.667 34.2857C38.667 33.528 38.386 32.8012 37.8859 32.2654C37.3858 31.7296 36.7075 31.4286 36.0003 31.4286ZM30.6669 34.2857C30.6669 32.7702 31.2288 31.3167 32.229 30.2451C33.2292 29.1735 34.5858 28.5714 36.0003 28.5714C37.4148 28.5714 38.7714 29.1735 39.7716 30.2451C40.7718 31.3167 41.3337 32.7702 41.3337 34.2857C41.3337 35.8012 40.7718 37.2547 39.7716 38.3263C38.7714 39.398 37.4148 40 36.0003 40C34.5858 40 33.2292 39.398 32.229 38.3263C31.2288 37.2547 30.6669 35.8012 30.6669 34.2857Z" fill="#F9F9F9"/>
</g>
<defs>
<filter id="filter0_d_30_40" x="0" y="0" width="48" height="48" filterUnits="userSpaceOnUse" color-interpolation-filters="sRGB">
<feFlood flood-opacity="0" result="BackgroundImageFix"/>
<feColorMatrix in="SourceAlpha" type="matrix" values="0 0 0 0 0 0 0 0 0 0 0 0 0 0 0 0 0 0 127 0" result="hardAlpha"/>
<feOffset dy="4"/>
<feGaussianBlur stdDeviation="2"/>
<feComposite in2="hardAlpha" operator="out"/>
<feColorMatrix type="matrix" values="0 0 0 0 0 0 0 0 0 0 0 0 0 0 0 0 0 0 0.25 0"/>
<feBlend mode="normal" in2="BackgroundImageFix" result="effect1_dropShadow_30_40"/>
<feBlend mode="normal" in="SourceGraphic" in2="effect1_dropShadow_30_40" result="shape"/>
</filter>
</defs>
</svg>
